<svg width="388" height="112" viewBox="0 0 388 112" fill="none" xmlns="http://www.w3.org/2000/svg">
<path d="M387.556 112H356.836L345.636 68.16H340.676V112H308.516V0H364.516C370.062 0 374.809 1.76 378.756 5.28C382.702 8.69333 384.676 13.1733 384.676 18.72V49.6C384.676 56.96 381.369 62.3467 374.756 65.76L387.556 112ZM349.636 49.6C350.382 49.6 351.022 49.3333 351.556 48.8C352.196 48.16 352.516 47.4667 352.516 46.72V21.6C352.516 20.7467 352.196 20.0533 351.556 19.52C351.022 18.9867 350.382 18.72 349.636 18.72H340.676V49.6H349.636Z" fill="#F9F9F9" style="mix-blend-mode:difference"/>
<path d="M279.419 112H243.579C238.032 112 233.286 110.293 229.339 106.88C225.392 103.36 223.419 98.8267 223.419 93.28V18.72C223.419 13.1733 225.392 8.69333 229.339 5.28C233.286 1.76 238.032 0 243.579 0H279.419C284.966 0 289.712 1.76 293.659 5.28C297.606 8.69333 299.579 13.1733 299.579 18.72V93.28C299.579 98.8267 297.606 103.36 293.659 106.88C289.712 110.293 284.966 112 279.419 112ZM264.539 93.28C265.286 93.28 265.926 93.0133 266.459 92.48C267.099 91.9467 267.419 91.2533 267.419 90.4V21.6C267.419 20.7467 267.099 20.0533 266.459 19.52C265.926 18.9867 265.286 18.72 264.539 18.72H258.459C257.712 18.72 257.019 18.9867 256.379 19.52C255.846 20.0533 255.579 20.7467 255.579 21.6V90.4C255.579 91.2533 255.846 91.9467 256.379 92.48C257.019 93.0133 257.712 93.28 258.459 93.28H264.539Z" fill="#F9F9F9" style="mix-blend-mode:difference"/>
<path d="M188.325 112H156.165V0H219.365V18.72H188.325V45.92H216.485V64.64H188.325V112Z" fill="#F9F9F9" style="mix-blend-mode:difference"/>
<path d="M149.128 112H85.9277V0H149.128V18.72H118.088V44.48H146.888V63.2H118.088V93.28H149.128V112Z" fill="#F9F9F9" style="mix-blend-mode:difference"/>
<path d="M56.8467 112H0.84668V0H56.8467C62.3933 0 67.14 1.76 71.0867 5.28C75.0334 8.69333 77.0067 13.1733 77.0067 18.72V93.28C77.0067 98.8267 75.0334 103.36 71.0867 106.88C67.14 110.293 62.3933 112 56.8467 112ZM41.9667 93.28C42.7133 93.28 43.3533 93.0133 43.8867 92.48C44.5267 91.9467 44.8467 91.2533 44.8467 90.4V21.6C44.8467 20.7467 44.5267 20.0533 43.8867 19.52C43.3533 18.9867 42.7133 18.72 41.9667 18.72H33.0067V93.28H41.9667Z" fill="#F9F9F9" style="mix-blend-mode:difference"/>
</svg>
