<svg width="94" height="23" viewBox="0 0 94 23" fill="none" xmlns="http://www.w3.org/2000/svg">
<path d="M93.2142 23.0001H86.7822V0.600098H93.2142V23.0001Z" fill="#F9F9F9" style="mix-blend-mode:difference"/>
<path d="M86.2984 23.0001H74.2344V0.600098H80.6664V19.2561H86.2984V23.0001Z" fill="#F9F9F9" style="mix-blend-mode:difference"/>
<path d="M73.4454 23.0001H67.1734L66.5654 19.2561H62.8214L62.2454 23.0001H55.9414L60.2614 0.600098H69.1574L73.4454 23.0001ZM65.9894 15.5441L64.7094 7.5761L63.4294 15.5441H65.9894Z" fill="#F9F9F9" style="mix-blend-mode:difference"/>
<path d="M56.4224 23.0001H44.3584V0.600098H50.7904V19.2561H56.4224V23.0001Z" fill="#F9F9F9" style="mix-blend-mode:difference"/>
<path d="M43.8745 23.0001H31.8105V0.600098H38.2425V19.2561H43.8745V23.0001Z" fill="#F9F9F9" style="mix-blend-mode:difference"/>
<path d="M30.4027 23.0001H17.7627V0.600098H30.4027V4.3441H24.1947V9.4961H29.9547V13.2401H24.1947V19.2561H30.4027V23.0001Z" fill="#F9F9F9" style="mix-blend-mode:difference"/>
<path d="M11.9471 23.0001H0.74707V0.600098H11.9471C13.0564 0.600098 14.0057 0.952098 14.7951 1.6561C15.5844 2.33876 15.9791 3.23476 15.9791 4.3441V19.2561C15.9791 20.3654 15.5844 21.2721 14.7951 21.9761C14.0057 22.6588 13.0564 23.0001 11.9471 23.0001ZM8.97107 19.2561C9.1204 19.2561 9.2484 19.2028 9.35507 19.0961C9.48307 18.9894 9.54707 18.8508 9.54707 18.6801V4.9201C9.54707 4.74943 9.48307 4.61077 9.35507 4.5041C9.2484 4.39743 9.1204 4.3441 8.97107 4.3441H7.17907V19.2561H8.97107Z" fill="#F9F9F9" style="mix-blend-mode:difference"/>
</svg>
